<svg width="472" height="39" viewBox="0 0 472 39" fill="none" xmlns="http://www.w3.org/2000/svg">
<path d="M5.48281 21.929V32.8947H27.4115C30.4271 32.8947 32.8943 30.4265 32.8943 27.4119C32.8943 24.3973 30.4271 21.929 27.4115 21.929H5.48281ZM5.48281 16.4468H27.4115C30.4271 16.4468 32.8943 13.9801 32.8943 10.965C32.8943 7.94945 30.4271 5.48118 27.4115 5.48118H5.48281V16.4468ZM0 38.376V-2.28882e-05H27.4115C33.1677 -2.28882e-05 38.3776 4.88011 38.3776 10.965C38.3776 14.2546 37.1145 16.9948 34.6484 19.1896C37.1145 21.3812 38.3776 24.1229 38.3776 27.4119C38.3776 33.3322 33.5521 38.2119 27.4115 38.376H0Z" fill="#E2D4BD"/>
<path d="M57.5636 -2.28882e-05H63.0469V38.376H57.5636V-2.28882e-05Z" fill="#E2D4BD"/>
<path d="M115.675 10.965C115.675 7.94945 113.209 5.48118 110.194 5.48118H88.264V32.8947H110.194C113.209 32.8947 115.675 30.4265 115.675 27.4119V10.965ZM121.159 27.4119C121.159 33.2229 116.334 38.376 110.194 38.376H82.7822V-2.28882e-05H110.194C116.06 -2.28882e-05 120.993 4.88011 121.159 10.965V27.4119Z" fill="#E2D4BD"/>
<path d="M158.343 21.929V32.8947H180.272C183.288 32.8947 185.753 30.4265 185.753 27.4119C185.753 24.3973 183.288 21.929 180.272 21.929H158.343ZM158.343 16.4468H180.272C183.288 16.4468 185.753 13.9801 185.753 10.965C185.753 7.94945 183.288 5.48118 180.272 5.48118H158.343V16.4468ZM152.86 38.376V-2.28882e-05H180.272C186.028 -2.28882e-05 191.237 4.88011 191.237 10.965C191.237 14.2546 189.975 16.9948 187.509 19.1896C189.975 21.3812 191.237 24.1229 191.237 27.4119C191.237 33.3322 186.412 38.2119 180.272 38.376H152.86Z" fill="#E2D4BD"/>
<path d="M243.317 -2.28882e-05H248.8V27.4119C248.8 33.2229 243.975 38.376 237.835 38.376H221.389C215.521 38.376 210.423 33.6067 210.423 27.4119V-2.28882e-05H215.907V27.4119C215.907 30.4265 218.373 32.8947 221.389 32.8947H237.835C240.852 32.8947 243.317 30.4265 243.317 27.4119V-2.28882e-05Z" fill="#E2D4BD"/>
<path d="M287.725 5.48118V38.376H282.243V5.48118H265.796V-2.28882e-05H304.171V5.48118H287.725Z" fill="#E2D4BD"/>
<path d="M326.649 32.8947H359.543V38.376H321.167V-2.28882e-05H326.649V32.8947Z" fill="#E2D4BD"/>
<path d="M382.02 16.4468H409.431V21.929H382.02V32.8947H414.913V38.376H376.537V-2.28882e-05H414.913V5.48118H382.02V16.4468Z" fill="#E2D4BD"/>
<path d="M466.448 10.965C466.448 7.94945 463.98 5.48118 460.965 5.48118H439.036V21.929H460.965C463.98 21.929 466.448 19.4624 466.448 16.4468V10.965ZM468.037 38.376L457.073 27.4119H439.036V38.376H433.553V-2.28882e-05H460.965C466.721 -2.28882e-05 471.931 4.88011 471.931 10.965V16.4468C471.931 21.1066 468.86 25.3281 464.309 26.864L471.931 34.4828V38.376H468.037Z" fill="#E2D4BD"/>
</svg>
